<?xml version="1.0" encoding="UTF-8" standalone="no"?>
<!DOCTYPE svg PUBLIC "-//W3C//DTD SVG 1.1//EN" "http://www.w3.org/Graphics/SVG/1.1/DTD/svg11.dtd">
<svg xmlns="http://www.w3.org/2000/svg" version="1.1" viewBox="0.00 0.00 500.00 500.00">
  <g stroke-width="2.00" fill="none" stroke-linecap="butt">

    <path stroke="#635435" vector-effect="non-scaling-stroke" d="
  M 284.22 101.59
  L 301.08 104.76
  Q 301.56 104.85 302.05 104.83
  Q 303.93 104.74 305.02 105.16
  Q 308.71 106.59 312.49 107.87
  Q 316.48 109.22 320.01 110.62
  Q 362.53 127.40 387.53 166.73
  C 388.20 167.78 388.44 169.10 389.22 170.03
  Q 390.03 170.99 390.71 172.22
  Q 394.11 178.38 397.18 184.33
  A 1.30 1.29 75.7 0 0 398.34 185.02
  L 407.45 184.88
  A 1.15 1.14 -88.4 0 0 408.58 183.81
  C 408.67 182.37 408.01 181.41 407.53 180.28
  Q 402.48 168.63 395.62 158.02" />
    <path stroke="#746949" vector-effect="non-scaling-stroke" d="
  M 395.62 158.02
  Q 380.69 135.60 359.18 119.78
  Q 354.69 116.48 347.52 112.25
  Q 338.36 106.85 335.45 105.33
  Q 330.25 102.62 318.99 98.26" />
    <path stroke="#7c715c" vector-effect="non-scaling-stroke" d="
  M 318.99 98.26
  Q 304.95 93.36 293.77 91.40
  Q 264.07 86.18 232.77 91.83
  Q 221.50 93.86 217.52 95.42
  Q 207.18 99.47 204.39 100.66
  Q 191.12 106.34 179.77 113.65
  Q 168.49 120.92 158.30 130.76" />
    <path stroke="#efc182" vector-effect="non-scaling-stroke" d="
  M 318.99 98.26
  Q 319.93 99.59 321.67 100.00
  Q 322.14 100.11 322.47 100.47
  L 325.16 103.47
  Q 325.56 103.92 324.97 104.00
  Q 323.29 104.24 322.10 103.28
  Q 321.73 102.97 321.26 102.86
  L 312.47 100.73" />
    <path stroke="#dead6f" vector-effect="non-scaling-stroke" d="
  M 312.47 100.73
  Q 309.78 100.76 307.25 99.72
  Q 306.36 99.35 304.63 98.98
  Q 303.33 98.71 302.21 98.27
  Q 299.93 97.39 296.55 97.22
  C 294.21 97.10 292.15 96.36 289.87 96.15
  Q 286.45 95.83 282.99 95.06
  Q 279.71 94.32 276.51 94.34
  C 268.44 94.38 260.49 94.04 252.49 94.62
  Q 234.25 95.95 216.07 102.58
  Q 211.30 104.32 206.50 106.61
  Q 201.22 109.12 197.19 111.36
  Q 190.05 115.32 182.77 119.72
  Q 175.95 123.83 169.41 129.32
  Q 160.78 136.57 153.41 143.36
  Q 150.27 146.24 147.17 149.58
  Q 145.93 150.92 145.26 151.98
  Q 144.43 153.31 143.33 154.27
  Q 136.48 160.22 131.75 169.01
  Q 130.79 170.78 129.35 172.33
  Q 127.56 174.24 125.98 176.62
  Q 125.40 177.50 124.65 178.14
  Q 123.75 178.92 123.24 180.03
  Q 123.01 180.54 122.48 180.40
  Q 122.26 180.34 122.05 180.40
  A 0.18 0.18 0.0 0 1 121.82 180.20
  Q 121.85 180.04 121.86 179.89
  Q 121.89 179.51 122.13 179.22
  Q 122.87 178.34 122.45 177.13" />
    <path stroke="#dead6f" vector-effect="non-scaling-stroke" d="
  M 155.97 132.87
  Q 157.08 132.82 158.30 130.76" />
    <path stroke="#d6a55c" vector-effect="non-scaling-stroke" d="
  M 312.47 100.73
  Q 314.29 102.14 317.23 102.08
  Q 319.08 102.05 321.41 103.57
  Q 322.63 104.37 321.29 103.80
  L 319.52 103.04
  A 0.17 0.17 0.0 0 0 319.35 103.32
  Q 321.16 104.80 321.78 104.65
  Q 322.02 104.59 322.02 104.59
  Q 321.48 104.88 319.50 103.95
  Q 319.29 103.86 319.16 104.05
  Q 319.07 104.20 319.13 104.33
  Q 319.20 104.49 319.38 104.53
  Q 320.75 104.87 322.16 105.77
  Q 325.30 107.78 329.01 109.33
  Q 329.54 109.56 331.80 110.36
  Q 333.66 111.01 335.26 112.46
  Q 336.00 113.13 337.45 112.85
  Q 337.96 112.76 338.41 113.01
  L 349.64 119.35
  Q 350.11 119.61 350.43 120.05
  Q 351.01 120.85 352.00 121.10
  Q 352.49 121.23 352.87 121.55
  Q 354.82 123.18 356.92 124.61
  Q 359.01 126.04 360.85 127.58
  Q 363.42 129.74 366.01 131.94
  Q 368.18 133.78 370.30 135.96
  Q 372.18 137.89 374.38 140.09
  Q 375.12 140.83 376.01 141.37
  Q 376.84 141.87 377.44 142.73
  Q 380.41 147.05 381.76 148.49
  Q 383.86 150.73 385.55 153.03
  Q 387.02 155.04 389.74 155.92
  Q 390.22 156.07 390.50 156.49
  Q 392.22 158.95 395.09 159.47
  Q 395.62 159.57 395.43 160.08
  Q 395.37 160.27 395.64 160.37
  Q 396.09 160.55 396.00 160.07
  L 395.62 158.02" />
    <path stroke="#b47d31" vector-effect="non-scaling-stroke" d="
  M 284.22 101.59
  Q 278.69 99.86 272.91 99.57
  Q 272.85 99.56 272.84 99.62
  Q 272.82 99.69 272.89 99.66
  Q 273.04 99.61 273.22 99.61
  Q 273.52 99.61 273.56 99.32
  Q 273.63 98.86 273.16 98.87
  Q 266.75 98.91 260.22 98.86
  Q 255.56 98.82 250.81 99.31
  C 245.42 99.87 241.53 100.52 237.03 101.89" />
    <path stroke="#635435" vector-effect="non-scaling-stroke" d="
  M 195.27 138.10
  Q 189.10 141.53 187.66 142.80
  C 184.53 145.57 181.18 148.02 178.17 150.90
  Q 167.25 161.37 157.59 175.57
  Q 155.09 179.25 153.40 183.20
  A 1.09 1.08 -75.5 0 0 154.28 184.71
  Q 159.50 185.24 164.45 184.80
  A 2.08 2.05 12.8 0 0 166.05 183.81
  Q 173.72 171.05 184.88 160.63
  Q 195.88 150.35 212.07 141.52" />
    <path stroke="#52411e" vector-effect="non-scaling-stroke" d="
  M 212.07 141.52
  Q 216.55 139.82 220.79 138.02
  Q 222.84 137.14 224.86 136.79
  Q 227.15 136.39 229.02 135.39
  Q 231.49 134.07 234.08 133.31
  Q 236.73 132.54 239.42 131.91
  Q 243.37 130.98 247.72 130.91
  Q 248.09 130.90 248.30 130.61
  Q 248.46 130.40 248.73 130.38
  Q 251.01 130.18 253.19 129.94
  Q 253.58 129.90 253.81 129.58
  Q 253.90 129.44 254.06 129.42
  Q 266.40 128.08 276.92 129.89
  Q 287.07 131.64 296.65 133.81
  C 320.19 139.13 341.13 154.74 356.11 173.84
  Q 360.37 179.28 363.34 184.64
  Q 363.57 185.06 364.05 185.07
  L 370.91 185.14" />
    <path stroke="#746949" vector-effect="non-scaling-stroke" d="
  M 370.91 185.14
  L 375.21 184.89
  Q 375.86 184.85 375.84 184.20
  Q 375.82 182.88 375.10 181.46
  Q 370.62 172.58 363.38 163.93
  Q 345.35 142.37 320.51 130.49
  C 314.08 127.41 307.28 124.10 300.54 122.43
  Q 280.30 117.44 265.62 117.14
  Q 227.75 116.36 195.27 138.10" />
    <path stroke="#c59244" vector-effect="non-scaling-stroke" d="
  M 370.91 185.14
  Q 369.69 182.77 368.06 180.76
  Q 365.61 177.74 364.88 176.66
  Q 363.03 173.92 361.19 171.28
  Q 360.46 170.25 359.54 169.36
  Q 358.67 168.52 357.94 167.42
  Q 356.68 165.53 355.38 163.92
  Q 354.17 162.42 352.50 160.95
  Q 350.99 159.62 349.26 157.82
  Q 342.47 150.74 332.12 143.70
  Q 331.66 143.38 331.10 143.40
  Q 330.41 143.42 330.18 142.83
  Q 330.00 142.36 329.56 142.10
  L 325.91 139.90
  Q 325.89 139.89 325.85 139.88
  Q 325.73 139.88 325.60 139.88
  Q 325.14 139.91 324.77 139.61
  Q 323.67 138.71 322.27 138.48
  Q 321.91 138.42 321.84 138.07
  Q 321.76 137.73 321.46 137.63
  Q 319.49 136.96 317.43 135.72
  Q 315.82 134.76 313.95 134.16
  Q 312.12 133.57 310.33 133.10" />
    <path stroke="#d6a55c" vector-effect="non-scaling-stroke" d="
  M 310.33 133.10
  Q 309.69 132.57 309.46 132.20
  Q 309.14 131.67 309.69 131.96
  Q 309.81 132.03 309.95 132.05
  Q 310.90 132.24 310.22 131.55
  Q 310.01 131.35 309.71 131.30
  Q 307.82 131.03 306.78 129.76
  Q 306.44 129.35 305.90 129.27
  Q 300.20 128.41 295.64 126.76
  Q 293.85 126.11 292.26 125.80
  Q 290.50 125.45 288.81 125.05
  Q 286.10 124.41 283.54 124.40
  Q 280.32 124.39 277.74 123.64
  Q 275.51 122.98 273.04 123.08
  Q 266.97 123.33 260.00 122.61
  Q 257.10 122.31 249.47 123.23
  Q 244.62 123.81 239.21 125.19
  Q 230.49 127.42 224.07 129.62
  Q 215.38 132.59 204.08 139.09
  Q 203.49 139.43 203.09 139.99
  Q 202.81 140.38 202.40 140.60
  Q 194.48 144.89 188.92 149.42
  Q 186.83 151.13 184.79 152.65
  Q 182.61 154.27 180.92 156.11
  Q 178.26 159.00 175.52 161.34
  Q 173.66 162.93 172.47 164.77
  Q 171.11 166.90 169.48 168.64
  Q 167.95 170.27 166.76 172.16
  Q 164.62 175.58 161.97 178.82
  Q 161.65 179.20 161.55 179.69
  Q 161.09 181.85 159.45 182.13
  A 1.32 1.32 0.0 0 1 158.02 180.28
  Q 159.07 177.97 160.39 175.41
  Q 161.51 173.21 163.07 171.34
  Q 166.04 167.77 168.44 163.86
  Q 168.70 163.43 169.15 163.24
  Q 169.74 162.99 170.04 162.42
  Q 170.41 161.73 170.94 161.17
  Q 173.16 158.83 175.26 156.04
  C 176.53 154.35 178.08 153.43 179.48 151.93
  C 181.50 149.76 183.70 147.95 185.79 146.00
  Q 187.09 144.78 189.26 143.35
  Q 192.60 141.15 195.27 138.10" />
    <path stroke="#b47d31" vector-effect="non-scaling-stroke" d="
  M 310.33 133.10
  Q 306.05 130.75 303.51 130.84
  Q 301.06 130.91 299.92 130.33
  Q 298.99 129.85 298.09 129.59
  Q 295.85 128.95 293.24 128.75
  Q 290.84 128.56 288.30 128.12
  Q 284.56 127.47 280.86 127.43
  Q 280.53 127.43 280.31 127.19
  Q 279.80 126.65 278.99 126.90
  Q 278.44 127.07 278.25 126.53
  Q 266.19 125.54 255.52 126.69
  Q 254.03 126.85 252.47 127.67
  Q 252.01 127.90 251.50 127.90
  C 249.83 127.87 248.16 127.74 246.53 128.15
  Q 243.62 128.88 240.67 129.41
  C 238.36 129.83 236.62 131.57 234.29 131.92
  Q 231.65 132.33 229.41 133.38
  Q 227.78 134.14 226.02 134.64
  Q 224.26 135.14 222.50 135.64
  Q 222.13 135.74 221.85 136.24
  Q 221.60 136.66 221.13 136.80
  Q 217.88 137.75 214.99 139.51
  Q 214.48 139.83 213.37 140.20
  Q 212.14 140.61 212.07 141.52" />
    <path stroke="#52411e" vector-effect="non-scaling-stroke" d="
  M 194.98 176.11
  Q 192.11 178.06 190.45 180.69
  Q 189.54 182.13 189.64 183.83
  A 1.10 1.10 0.0 0 0 190.75 184.87
  Q 195.58 184.83 199.87 185.07
  Q 202.40 185.21 204.32 183.16
  Q 217.23 169.33 238.41 161.74
  Q 246.77 158.74 257.25 157.86
  C 271.49 156.65 286.02 158.94 298.80 165.07
  Q 302.27 166.74 307.10 170.23
  Q 311.07 173.08 315.09 175.86
  C 318.64 178.30 321.46 180.98 324.40 183.91
  A 3.94 3.92 -20.8 0 0 326.93 185.04
  Q 333.69 185.45 340.81 185.11
  Q 341.59 185.07 341.35 184.32
  Q 341.04 183.36 340.19 182.78
  Q 339.85 182.54 339.67 182.17
  Q 339.20 181.18 338.36 180.36" />
    <path stroke="#746949" vector-effect="non-scaling-stroke" d="
  M 338.36 180.36
  Q 332.25 173.71 329.60 171.40
  Q 320.18 163.19 309.04 157.01
  Q 305.72 155.17 302.33 153.89
  C 296.67 151.76 291.09 149.29 285.31 147.90
  Q 263.84 142.75 241.74 148.77
  Q 234.77 150.68 226.59 154.19
  Q 208.41 161.99 194.98 176.11" />
    <path stroke="#c59244" vector-effect="non-scaling-stroke" d="
  M 338.36 180.36
  Q 338.22 180.92 338.40 181.50
  C 338.62 182.26 339.31 182.65 339.61 183.38
  Q 339.84 183.96 339.22 183.86
  Q 337.28 183.56 335.28 184.05
  C 334.07 184.35 332.72 184.13 331.85 183.16
  Q 325.63 176.24 322.28 173.74
  Q 316.84 169.69 309.41 164.92
  Q 299.29 158.42 288.05 155.39
  Q 285.41 154.68 282.86 153.91
  Q 280.26 153.12 277.57 152.87
  C 271.26 152.28 265.18 151.32 258.75 151.92
  Q 243.83 153.31 230.00 159.01
  Q 225.95 160.68 215.47 166.65
  Q 215.25 166.78 215.10 166.96
  Q 214.96 167.15 214.82 167.34
  Q 214.62 167.62 214.33 167.82
  Q 211.23 169.94 208.06 172.58
  Q 206.42 173.95 205.30 175.33
  Q 204.08 176.83 202.61 178.16
  Q 200.32 180.22 199.15 182.32
  Q 197.96 184.45 195.52 184.21
  L 192.25 183.89
  Q 189.42 183.61 191.31 181.48
  Q 193.48 179.04 194.98 176.11" />
    <path stroke="#345159" vector-effect="non-scaling-stroke" d="
  M 251.97 176.57
  C 250.20 177.19 248.45 177.53 247.20 179.05
  C 243.22 183.93 250.20 186.66 253.90 187.02
  Q 264.37 188.06 275.19 187.35
  Q 279.63 187.06 283.49 184.73
  A 1.48 1.44 -6.8 0 0 284.13 183.94
  C 286.06 178.25 276.94 175.77 272.91 175.44
  C 266.16 174.88 258.40 174.30 251.97 176.57" />
    <path stroke="#80877b" vector-effect="non-scaling-stroke" d="
  M 102.16 270.37
  Q 102.16 269.91 102.63 269.91
  L 126.19 269.65
  A 1.59 1.59 0.0 0 0 127.76 268.06
  L 127.79 252.54
  A 0.50 0.50 0.0 0 0 127.29 252.04
  L 102.73 251.99
  A 0.51 0.51 0.0 0 1 102.23 251.48
  L 102.27 228.09
  A 0.39 0.39 0.0 0 1 102.66 227.70
  L 142.29 227.75
  A 1.54 1.54 0.0 0 0 143.83 226.22
  L 143.87 209.85
  Q 143.87 209.32 143.34 209.23
  Q 140.46 208.79 137.63 208.79
  Q 113.89 208.77 88.01 208.63
  C 86.07 208.62 83.11 208.41 81.59 209.77
  Q 79.16 211.93 79.17 215.64
  Q 79.27 259.72 79.17 306.77
  C 79.16 311.02 82.33 313.75 86.74 313.75
  Q 111.42 313.72 137.30 313.71
  C 140.27 313.71 141.90 311.85 142.04 308.73
  Q 142.33 302.41 142.19 295.38
  Q 142.18 294.59 141.39 294.59
  L 103.21 294.80
  Q 101.86 294.81 101.88 293.46
  L 102.16 270.37" />
    <path stroke="#80877b" vector-effect="non-scaling-stroke" d="
  M 255.24 240.01
  Q 255.20 274.55 255.36 308.45
  Q 255.38 312.73 259.86 313.33
  Q 264.80 313.99 272.78 313.53
  C 275.30 313.39 277.01 311.81 277.01 309.25
  Q 277.01 259.16 276.39 209.32
  Q 276.38 208.78 275.84 208.76
  Q 266.01 208.38 256.08 208.57
  C 254.40 208.60 252.88 208.31 251.57 209.62
  Q 244.03 217.19 237.42 224.69
  C 232.54 230.24 227.18 235.49 222.26 240.94
  A 0.21 0.21 0.0 0 1 221.94 240.94
  Q 209.13 225.77 194.94 211.25
  C 193.93 210.21 192.60 209.39 191.12 209.33
  Q 183.40 209.00 176.29 208.74
  Q 171.94 208.58 171.91 212.76
  Q 171.54 261.32 172.03 309.60
  Q 172.06 313.48 175.95 313.65
  Q 182.45 313.93 190.41 313.67
  C 193.13 313.58 193.71 309.86 193.70 307.75
  Q 193.59 275.00 193.50 241.97
  A 0.51 0.49 -10.0 0 1 193.84 241.50
  Q 194.36 241.33 194.75 241.77
  Q 208.26 257.05 222.78 273.24
  Q 223.11 273.61 223.44 273.24
  Q 238.03 257.11 252.23 240.20
  C 252.89 239.42 253.75 239.30 254.72 239.42
  Q 255.24 239.49 255.24 240.01" />
    <path stroke="#80877b" vector-effect="non-scaling-stroke" d="
  M 309.84 209.97
  A 0.80 0.80 0.0 0 0 309.48 210.46
  Q 308.59 213.88 308.57 217.92
  Q 308.34 260.36 308.75 308.20
  C 308.77 310.92 311.00 313.40 313.62 313.69
  Q 317.81 314.15 323.01 313.84
  C 326.53 313.63 329.66 311.59 329.61 307.71
  Q 329.07 263.32 329.04 211.53
  Q 329.04 209.03 326.48 208.83
  Q 319.09 208.25 312.47 209.03
  Q 311.06 209.19 309.84 209.97" />
    <path stroke="#80877b" vector-effect="non-scaling-stroke" d="
  M 379.95 272.57
  Q 379.95 271.78 380.74 271.78
  L 393.96 271.62
  A 1.44 1.43 73.4 0 1 395.19 272.29
  Q 406.59 290.04 417.61 308.72
  Q 419.91 312.63 422.95 313.26
  C 426.01 313.90 443.94 315.17 439.39 307.13
  Q 432.65 295.21 425.87 284.25
  Q 421.69 277.49 418.35 270.26
  Q 418.08 269.69 418.66 269.44
  C 427.05 265.76 433.15 260.31 436.32 251.34
  C 442.70 233.26 431.35 216.01 414.09 210.32
  Q 409.33 208.75 399.85 208.72
  Q 379.99 208.66 360.13 208.79
  A 1.39 1.39 0.0 0 0 358.76 210.03
  C 358.65 211.03 358.34 212.13 358.34 213.13
  Q 358.12 259.92 358.11 303.31
  C 358.11 306.65 357.40 313.53 362.68 313.68
  Q 366.62 313.78 371.31 313.72
  C 376.41 313.66 380.01 311.17 380.00 305.92
  Q 379.96 288.95 379.95 272.57" />
    <path stroke="#526a6f" vector-effect="non-scaling-stroke" d="
  M 315.12 392.76
  Q 312.59 394.01 309.73 394.89
  C 299.54 398.00 289.08 400.47 278.57 401.31
  Q 247.73 403.79 218.31 393.74" />
    <path stroke="#345159" vector-effect="non-scaling-stroke" d="
  M 218.31 393.74
  Q 185.49 381.34 162.59 355.22
  C 158.08 350.08 154.44 344.24 149.51 339.59
  C 145.62 335.92 139.87 339.88 139.57 344.30
  C 139.33 347.87 144.14 353.62 146.62 356.47
  Q 153.49 364.32 162.14 372.48
  Q 177.34 386.79 197.97 396.66
  Q 212.25 403.48 224.49 406.51
  Q 264.98 416.52 304.87 407.31
  Q 321.03 403.57 334.58 396.15
  Q 346.02 389.89 357.13 382.11
  C 367.13 375.10 374.87 366.24 382.90 357.25
  Q 388.33 351.17 391.44 345.73
  Q 393.92 341.38 389.48 339.40
  C 386.10 337.88 381.50 339.05 379.17 342.05
  Q 371.79 351.55 364.67 359.50
  Q 362.48 361.94 360.14 363.90
  Q 351.34 371.26 342.03 378.35
  Q 331.65 386.23 315.12 392.76" />
    <path stroke="#85a3a6" vector-effect="non-scaling-stroke" d="
  M 218.31 393.74
  Q 216.37 393.71 215.19 394.53
  A 0.82 0.82 0.0 0 0 215.30 395.94
  Q 217.00 396.76 218.75 397.57
  C 221.64 398.90 224.75 399.64 227.78 400.75
  Q 230.39 401.71 233.30 402.52
  Q 237.50 403.68 241.74 404.65
  Q 247.96 406.06 253.41 406.55
  C 259.94 407.13 266.88 406.52 273.70 406.53
  Q 278.08 406.53 285.02 405.18
  C 287.09 404.78 288.99 405.13 290.95 404.36
  C 292.74 403.65 294.53 403.95 296.39 403.15
  C 297.42 402.70 298.54 403.02 299.69 402.60
  Q 303.38 401.23 306.52 399.75
  Q 308.78 398.68 311.03 398.17
  Q 314.88 397.30 317.65 394.75
  A 0.84 0.82 -28.0 0 0 317.90 393.95
  L 317.80 393.48
  Q 317.71 393.06 317.28 393.13
  Q 316.00 393.33 315.12 392.76" />
    <path stroke="#345159" vector-effect="non-scaling-stroke" d="
  M 229.76 338.99
  C 226.86 340.13 228.05 342.86 230.05 343.84
  Q 235.48 346.50 243.13 348.92
  Q 251.44 351.55 258.30 351.95
  Q 265.57 352.37 275.39 351.43
  Q 284.82 350.52 295.48 346.20
  C 298.00 345.18 300.30 343.48 302.07 341.44
  A 1.24 1.24 0.0 0 0 302.37 340.58
  Q 302.33 339.84 301.13 339.34" />
    <path stroke="#526a6f" vector-effect="non-scaling-stroke" d="
  M 301.13 339.34
  Q 296.06 338.04 291.23 338.72
  Q 271.80 341.45 254.64 340.63
  Q 246.73 340.25 239.00 338.62
  Q 234.17 337.61 229.76 338.99" />
    <path stroke="#85a3a6" vector-effect="non-scaling-stroke" d="
  M 301.13 339.34
  Q 302.55 341.40 297.61 340.93
  A 1.66 1.66 0.0 0 0 296.59 341.17
  Q 293.60 343.02 290.98 343.45
  Q 287.23 344.07 282.51 344.26
  Q 281.60 344.30 280.71 344.58
  Q 280.04 344.80 279.30 344.89
  Q 270.19 345.94 261.25 345.66
  Q 257.70 345.55 254.36 344.73
  Q 251.88 344.12 249.20 344.07
  Q 246.59 344.02 243.99 343.39
  Q 239.94 342.39 236.21 341.47
  C 234.18 340.97 232.29 341.12 230.25 341.13
  Q 229.69 341.13 229.53 340.59
  Q 229.32 339.89 229.76 338.99" />
    <path stroke="#526a6f" vector-effect="non-scaling-stroke" d="
  M 344.21 338.46
  Q 341.52 338.77 339.11 340.87
  Q 332.95 346.23 326.52 351.28
  C 316.28 359.34 304.88 364.74 292.09 367.80
  Q 254.67 376.74 219.57 360.74
  C 208.46 355.68 200.28 347.83 191.30 340.40
  Q 188.10 337.75 183.64 338.93" />
    <path stroke="#345159" vector-effect="non-scaling-stroke" d="
  M 183.64 338.93
  Q 183.12 338.83 180.89 340.56
  Q 179.79 341.42 180.49 342.62
  C 184.21 349.04 190.02 354.41 195.96 358.73
  C 204.40 364.86 213.47 370.70 223.23 374.90
  Q 234.83 379.89 248.59 381.70
  Q 264.63 383.80 285.14 381.07
  C 288.47 380.63 291.54 379.50 294.80 378.88
  Q 298.41 378.19 301.80 377.06
  Q 331.34 367.22 351.78 342.79
  A 2.16 2.16 0.0 0 0 351.54 339.77
  Q 348.94 337.51 344.21 338.46" />
    <path stroke="#85a3a6" vector-effect="non-scaling-stroke" d="
  M 183.64 338.93
  Q 186.95 343.73 191.36 347.19
  Q 191.78 347.52 192.03 347.99
  Q 192.42 348.76 193.19 349.16
  Q 193.61 349.37 193.90 349.73
  Q 194.30 350.21 194.71 350.73
  Q 195.22 351.36 195.94 351.77
  Q 198.99 353.49 202.07 355.47
  Q 202.51 355.76 202.77 356.22
  Q 203.08 356.79 203.72 356.84
  A 1.49 1.46 71.0 0 1 204.68 357.32
  Q 206.13 358.95 208.11 359.75
  Q 209.97 360.51 211.21 362.07
  A 1.29 1.28 -12.7 0 0 211.93 362.52
  Q 213.54 362.88 214.95 363.68
  C 216.54 364.57 219.22 366.14 220.99 366.21
  Q 221.83 366.25 222.37 366.87
  A 2.16 2.06 78.1 0 0 223.20 367.44
  Q 228.67 369.49 234.38 371.68
  Q 237.24 372.77 240.32 372.96
  Q 243.45 373.16 246.47 374.26
  Q 248.84 375.12 251.54 375.12
  Q 255.93 375.11 260.60 375.57
  C 264.77 375.99 268.94 375.87 273.16 375.90
  C 275.64 375.92 277.92 375.29 280.37 375.14
  Q 282.96 374.98 285.71 374.21
  Q 289.12 373.26 292.89 372.65
  Q 295.97 372.15 299.01 371.16
  Q 302.02 370.18 304.98 369.19
  Q 306.63 368.63 308.13 367.71
  Q 309.62 366.78 311.18 366.34
  Q 313.53 365.68 315.83 364.52
  Q 317.77 363.53 319.87 362.51
  Q 321.58 361.68 323.63 360.14
  Q 326.10 358.28 328.67 356.55
  Q 331.27 354.80 333.57 352.82
  Q 337.77 349.20 341.47 346.58
  Q 341.75 346.38 341.85 346.05
  Q 341.99 345.56 342.39 345.24
  Q 344.23 343.74 345.78 341.88
  Q 346.41 341.12 347.33 340.72
  Q 347.82 340.51 347.90 340.00
  Q 348.05 339.16 347.44 338.70
  Q 347.02 338.38 346.38 338.37
  Q 345.35 338.36 344.21 338.46" />
    <path stroke="#efc182" vector-effect="non-scaling-stroke" d="
  M 332.94 108.29
  C 331.48 107.78 330.82 106.42 328.62 106.66
  Q 328.12 106.71 327.73 106.38
  Q 327.23 105.95 326.55 105.72
  Q 325.63 105.40 326.29 106.12
  Q 327.24 107.15 328.65 107.14
  Q 329.16 107.14 329.50 107.53
  Q 329.79 107.87 330.24 107.84
  Q 330.88 107.80 331.41 108.16
  Q 333.07 109.29 335.02 109.83
  Q 335.21 109.88 335.26 109.69
  L 335.33 109.42
  A 0.40 0.40 0.0 0 0 335.04 108.93
  Q 333.98 108.66 332.94 108.29" />
    <path stroke="#80877b" vector-effect="non-scaling-stroke" d="
  M 380.04 229.49
  L 379.96 251.53
  A 2.05 2.05 0.0 0 0 382.00 253.58
  L 402.42 253.65
  A 14.07 12.98 0.2 0 0 416.54 240.72
  L 416.54 240.54
  A 14.07 12.98 0.2 0 0 402.52 227.51
  L 382.10 227.44
  A 2.05 2.05 0.0 0 0 380.04 229.49" />
  </g>
  <path fill="#ffffff" d="
  M 1.35 0.00
  L 9.27 0.00
  L 1.35 0.00
  Z" />
  <path fill="#ffffff" d="
  M 14.62 0.00
  L 111.62 0.00
  L 14.62 0.00
  Z" />
  <path fill="#ffffff" d="
  M 297.11 0.00
  L 351.62 0.00
  L 297.11 0.00
  Z" />
  <path fill="#ffffff" d="
  M 380.11 0.00
  L 421.27 0.00
  L 380.11 0.00
  Z" />
  <path fill="#ffffff" d="
  M 470.75 0.00
  L 480.63 0.00
  L 470.75 0.00
  Z" />
  <path fill="#011822" d="
  M 466.90 274.03
  C 466.71 279.48 466.17 285.14 466.14 290.33
  C 466.04 305.41 465.87 316.20 466.85 328.46
  C 466.65 332.38 466.26 335.42 462.85 337.15
  Q 461.10 338.04 458.89 338.04
  Q 442.19 338.07 425.71 338.26
  A 1.45 1.42 19.0 0 0 424.62 338.78
  Q 422.35 341.45 420.54 344.05
  Q 407.94 362.24 398.57 373.65
  Q 389.60 384.56 372.88 397.54
  Q 356.53 410.23 337.29 418.31
  C 327.41 422.45 317.18 426.18 306.76 428.44
  Q 274.97 435.35 242.80 431.59
  C 213.71 428.18 185.74 416.67 161.33 400.16
  C 144.09 388.50 129.12 372.05 116.82 355.50
  Q 111.54 348.40 106.05 341.58
  Q 103.38 338.26 99.13 338.25
  Q 80.97 338.21 65.11 338.01
  C 59.47 337.94 52.81 338.12 52.85 330.13
  Q 53.23 260.23 52.92 193.47
  C 52.90 189.33 55.92 185.49 60.26 185.55
  Q 77.37 185.81 91.77 185.42
  Q 93.14 185.38 93.76 184.16
  Q 98.40 175.07 103.37 166.33
  Q 123.68 130.58 154.43 106.18
  C 166.80 96.37 181.69 88.47 196.74 82.05
  C 210.29 76.27 224.52 72.30 238.30 69.93
  C 257.42 66.64 277.78 67.87 297.13 71.18
  C 320.17 75.11 342.52 84.62 362.41 97.03
  C 380.67 108.42 396.90 124.98 409.90 142.06
  C 419.20 154.28 426.69 169.04 432.76 182.84
  Q 433.26 183.97 434.02 185.01
  Q 434.34 185.43 434.87 185.44
  Q 446.86 185.68 459.07 185.22
  Q 462.08 185.10 463.82 186.30
  Q 466.97 188.48 466.99 192.80
  Q 467.13 223.06 466.90 274.03
  Z
  M 158.30 130.76
  Q 156.65 131.26 155.97 132.87
  Q 152.46 135.71 149.45 139.23
  Q 140.82 149.28 132.89 159.87
  Q 128.26 166.05 122.45 177.13
  Q 120.57 180.54 120.19 183.98
  A 0.94 0.93 3.3 0 0 121.12 185.02
  L 129.94 185.05
  A 1.36 1.35 -76.4 0 0 131.17 184.29
  Q 145.17 156.15 169.88 135.28
  C 177.38 128.95 186.50 123.34 195.15 118.14
  Q 214.67 106.40 237.03 101.89
  Q 242.68 101.48 248.33 101.16
  Q 253.47 100.88 259.66 101.11
  Q 271.79 101.55 284.22 101.59
  L 301.08 104.76
  Q 301.56 104.85 302.05 104.83
  Q 303.93 104.74 305.02 105.16
  Q 308.71 106.59 312.49 107.87
  Q 316.48 109.22 320.01 110.62
  Q 362.53 127.40 387.53 166.73
  C 388.20 167.78 388.44 169.10 389.22 170.03
  Q 390.03 170.99 390.71 172.22
  Q 394.11 178.38 397.18 184.33
  A 1.30 1.29 75.7 0 0 398.34 185.02
  L 407.45 184.88
  A 1.15 1.14 -88.4 0 0 408.58 183.81
  C 408.67 182.37 408.01 181.41 407.53 180.28
  Q 402.48 168.63 395.62 158.02
  Q 380.69 135.60 359.18 119.78
  Q 354.69 116.48 347.52 112.25
  Q 338.36 106.85 335.45 105.33
  Q 330.25 102.62 318.99 98.26
  Q 304.95 93.36 293.77 91.40
  Q 264.07 86.18 232.77 91.83
  Q 221.50 93.86 217.52 95.42
  Q 207.18 99.47 204.39 100.66
  Q 191.12 106.34 179.77 113.65
  Q 168.49 120.92 158.30 130.76
  Z
  M 195.27 138.10
  Q 189.10 141.53 187.66 142.80
  C 184.53 145.57 181.18 148.02 178.17 150.90
  Q 167.25 161.37 157.59 175.57
  Q 155.09 179.25 153.40 183.20
  A 1.09 1.08 -75.5 0 0 154.28 184.71
  Q 159.50 185.24 164.45 184.80
  A 2.08 2.05 12.8 0 0 166.05 183.81
  Q 173.72 171.05 184.88 160.63
  Q 195.88 150.35 212.07 141.52
  Q 216.55 139.82 220.79 138.02
  Q 222.84 137.14 224.86 136.79
  Q 227.15 136.39 229.02 135.39
  Q 231.49 134.07 234.08 133.31
  Q 236.73 132.54 239.42 131.91
  Q 243.37 130.98 247.72 130.91
  Q 248.09 130.90 248.30 130.61
  Q 248.46 130.40 248.73 130.38
  Q 251.01 130.18 253.19 129.94
  Q 253.58 129.90 253.81 129.58
  Q 253.90 129.44 254.06 129.42
  Q 266.40 128.08 276.92 129.89
  Q 287.07 131.64 296.65 133.81
  C 320.19 139.13 341.13 154.74 356.11 173.84
  Q 360.37 179.28 363.34 184.64
  Q 363.57 185.06 364.05 185.07
  L 370.91 185.14
  L 375.21 184.89
  Q 375.86 184.85 375.84 184.20
  Q 375.82 182.88 375.10 181.46
  Q 370.62 172.58 363.38 163.93
  Q 345.35 142.37 320.51 130.49
  C 314.08 127.41 307.28 124.10 300.54 122.43
  Q 280.30 117.44 265.62 117.14
  Q 227.75 116.36 195.27 138.10
  Z
  M 194.98 176.11
  Q 192.11 178.06 190.45 180.69
  Q 189.54 182.13 189.64 183.83
  A 1.10 1.10 0.0 0 0 190.75 184.87
  Q 195.58 184.83 199.87 185.07
  Q 202.40 185.21 204.32 183.16
  Q 217.23 169.33 238.41 161.74
  Q 246.77 158.74 257.25 157.86
  C 271.49 156.65 286.02 158.94 298.80 165.07
  Q 302.27 166.74 307.10 170.23
  Q 311.07 173.08 315.09 175.86
  C 318.64 178.30 321.46 180.98 324.40 183.91
  A 3.94 3.92 -20.8 0 0 326.93 185.04
  Q 333.69 185.45 340.81 185.11
  Q 341.59 185.07 341.35 184.32
  Q 341.04 183.36 340.19 182.78
  Q 339.85 182.54 339.67 182.17
  Q 339.20 181.18 338.36 180.36
  Q 332.25 173.71 329.60 171.40
  Q 320.18 163.19 309.04 157.01
  Q 305.72 155.17 302.33 153.89
  C 296.67 151.76 291.09 149.29 285.31 147.90
  Q 263.84 142.75 241.74 148.77
  Q 234.77 150.68 226.59 154.19
  Q 208.41 161.99 194.98 176.11
  Z
  M 251.97 176.57
  C 250.20 177.19 248.45 177.53 247.20 179.05
  C 243.22 183.93 250.20 186.66 253.90 187.02
  Q 264.37 188.06 275.19 187.35
  Q 279.63 187.06 283.49 184.73
  A 1.48 1.44 -6.8 0 0 284.13 183.94
  C 286.06 178.25 276.94 175.77 272.91 175.44
  C 266.16 174.88 258.40 174.30 251.97 176.57
  Z
  M 102.16 270.37
  Q 102.16 269.91 102.63 269.91
  L 126.19 269.65
  A 1.59 1.59 0.0 0 0 127.76 268.06
  L 127.79 252.54
  A 0.50 0.50 0.0 0 0 127.29 252.04
  L 102.73 251.99
  A 0.51 0.51 0.0 0 1 102.23 251.48
  L 102.27 228.09
  A 0.39 0.39 0.0 0 1 102.66 227.70
  L 142.29 227.75
  A 1.54 1.54 0.0 0 0 143.83 226.22
  L 143.87 209.85
  Q 143.87 209.32 143.34 209.23
  Q 140.46 208.79 137.63 208.79
  Q 113.89 208.77 88.01 208.63
  C 86.07 208.62 83.11 208.41 81.59 209.77
  Q 79.16 211.93 79.17 215.64
  Q 79.27 259.72 79.17 306.77
  C 79.16 311.02 82.33 313.75 86.74 313.75
  Q 111.42 313.72 137.30 313.71
  C 140.27 313.71 141.90 311.85 142.04 308.73
  Q 142.33 302.41 142.19 295.38
  Q 142.18 294.59 141.39 294.59
  L 103.21 294.80
  Q 101.86 294.81 101.88 293.46
  L 102.16 270.37
  Z
  M 255.24 240.01
  Q 255.20 274.55 255.36 308.45
  Q 255.38 312.73 259.86 313.33
  Q 264.80 313.99 272.78 313.53
  C 275.30 313.39 277.01 311.81 277.01 309.25
  Q 277.01 259.16 276.39 209.32
  Q 276.38 208.78 275.84 208.76
  Q 266.01 208.38 256.08 208.57
  C 254.40 208.60 252.88 208.31 251.57 209.62
  Q 244.03 217.19 237.42 224.69
  C 232.54 230.24 227.18 235.49 222.26 240.94
  A 0.21 0.21 0.0 0 1 221.94 240.94
  Q 209.13 225.77 194.94 211.25
  C 193.93 210.21 192.60 209.39 191.12 209.33
  Q 183.40 209.00 176.29 208.74
  Q 171.94 208.58 171.91 212.76
  Q 171.54 261.32 172.03 309.60
  Q 172.06 313.48 175.95 313.65
  Q 182.45 313.93 190.41 313.67
  C 193.13 313.58 193.71 309.86 193.70 307.75
  Q 193.59 275.00 193.50 241.97
  A 0.51 0.49 -10.0 0 1 193.84 241.50
  Q 194.36 241.33 194.75 241.77
  Q 208.26 257.05 222.78 273.24
  Q 223.11 273.61 223.44 273.24
  Q 238.03 257.11 252.23 240.20
  C 252.89 239.42 253.75 239.30 254.72 239.42
  Q 255.24 239.49 255.24 240.01
  Z
  M 309.84 209.97
  A 0.80 0.80 0.0 0 0 309.48 210.46
  Q 308.59 213.88 308.57 217.92
  Q 308.34 260.36 308.75 308.20
  C 308.77 310.92 311.00 313.40 313.62 313.69
  Q 317.81 314.15 323.01 313.84
  C 326.53 313.63 329.66 311.59 329.61 307.71
  Q 329.07 263.32 329.04 211.53
  Q 329.04 209.03 326.48 208.83
  Q 319.09 208.25 312.47 209.03
  Q 311.06 209.19 309.84 209.97
  Z
  M 379.95 272.57
  Q 379.95 271.78 380.74 271.78
  L 393.96 271.62
  A 1.44 1.43 73.4 0 1 395.19 272.29
  Q 406.59 290.04 417.61 308.72
  Q 419.91 312.63 422.95 313.26
  C 426.01 313.90 443.94 315.17 439.39 307.13
  Q 432.65 295.21 425.87 284.25
  Q 421.69 277.49 418.35 270.26
  Q 418.08 269.69 418.66 269.44
  C 427.05 265.76 433.15 260.31 436.32 251.34
  C 442.70 233.26 431.35 216.01 414.09 210.32
  Q 409.33 208.75 399.85 208.72
  Q 379.99 208.66 360.13 208.79
  A 1.39 1.39 0.0 0 0 358.76 210.03
  C 358.65 211.03 358.34 212.13 358.34 213.13
  Q 358.12 259.92 358.11 303.31
  C 358.11 306.65 357.40 313.53 362.68 313.68
  Q 366.62 313.78 371.31 313.72
  C 376.41 313.66 380.01 311.17 380.00 305.92
  Q 379.96 288.95 379.95 272.57
  Z
  M 315.12 392.76
  Q 312.59 394.01 309.73 394.89
  C 299.54 398.00 289.08 400.47 278.57 401.31
  Q 247.73 403.79 218.31 393.74
  Q 185.49 381.34 162.59 355.22
  C 158.08 350.08 154.44 344.24 149.51 339.59
  C 145.62 335.92 139.87 339.88 139.57 344.30
  C 139.33 347.87 144.14 353.62 146.62 356.47
  Q 153.49 364.32 162.14 372.48
  Q 177.34 386.79 197.97 396.66
  Q 212.25 403.48 224.49 406.51
  Q 264.98 416.52 304.87 407.31
  Q 321.03 403.57 334.58 396.15
  Q 346.02 389.89 357.13 382.11
  C 367.13 375.10 374.87 366.24 382.90 357.25
  Q 388.33 351.17 391.44 345.73
  Q 393.92 341.38 389.48 339.40
  C 386.10 337.88 381.50 339.05 379.17 342.05
  Q 371.79 351.55 364.67 359.50
  Q 362.48 361.94 360.14 363.90
  Q 351.34 371.26 342.03 378.35
  Q 331.65 386.23 315.12 392.76
  Z
  M 229.76 338.99
  C 226.86 340.13 228.05 342.86 230.05 343.84
  Q 235.48 346.50 243.13 348.92
  Q 251.44 351.55 258.30 351.95
  Q 265.57 352.37 275.39 351.43
  Q 284.82 350.52 295.48 346.20
  C 298.00 345.18 300.30 343.48 302.07 341.44
  A 1.24 1.24 0.0 0 0 302.37 340.58
  Q 302.33 339.84 301.13 339.34
  Q 296.06 338.04 291.23 338.72
  Q 271.80 341.45 254.64 340.63
  Q 246.73 340.25 239.00 338.62
  Q 234.17 337.61 229.76 338.99
  Z
  M 344.21 338.46
  Q 341.52 338.77 339.11 340.87
  Q 332.95 346.23 326.52 351.28
  C 316.28 359.34 304.88 364.74 292.09 367.80
  Q 254.67 376.74 219.57 360.74
  C 208.46 355.68 200.28 347.83 191.30 340.40
  Q 188.10 337.75 183.64 338.93
  Q 183.12 338.83 180.89 340.56
  Q 179.79 341.42 180.49 342.62
  C 184.21 349.04 190.02 354.41 195.96 358.73
  C 204.40 364.86 213.47 370.70 223.23 374.90
  Q 234.83 379.89 248.59 381.70
  Q 264.63 383.80 285.14 381.07
  C 288.47 380.63 291.54 379.50 294.80 378.88
  Q 298.41 378.19 301.80 377.06
  Q 331.34 367.22 351.78 342.79
  A 2.16 2.16 0.0 0 0 351.54 339.77
  Q 348.94 337.51 344.21 338.46
  Z" />
  <path fill="#f6c995" d="
  M 318.99 98.26
  Q 319.93 99.59 321.67 100.00
  Q 322.14 100.11 322.47 100.47
  L 325.16 103.47
  Q 325.56 103.92 324.97 104.00
  Q 323.29 104.24 322.10 103.28
  Q 321.73 102.97 321.26 102.86
  L 312.47 100.73
  Q 309.78 100.76 307.25 99.72
  Q 306.36 99.35 304.63 98.98
  Q 303.33 98.71 302.21 98.27
  Q 299.93 97.39 296.55 97.22
  C 294.21 97.10 292.15 96.36 289.87 96.15
  Q 286.45 95.83 282.99 95.06
  Q 279.71 94.32 276.51 94.34
  C 268.44 94.38 260.49 94.04 252.49 94.62
  Q 234.25 95.95 216.07 102.58
  Q 211.30 104.32 206.50 106.61
  Q 201.22 109.12 197.19 111.36
  Q 190.05 115.32 182.77 119.72
  Q 175.95 123.83 169.41 129.32
  Q 160.78 136.57 153.41 143.36
  Q 150.27 146.24 147.17 149.58
  Q 145.93 150.92 145.26 151.98
  Q 144.43 153.31 143.33 154.27
  Q 136.48 160.22 131.75 169.01
  Q 130.79 170.78 129.35 172.33
  Q 127.56 174.24 125.98 176.62
  Q 125.40 177.50 124.65 178.14
  Q 123.75 178.92 123.24 180.03
  Q 123.01 180.54 122.48 180.40
  Q 122.26 180.34 122.05 180.40
  A 0.18 0.18 0.0 0 1 121.82 180.20
  Q 121.85 180.04 121.86 179.89
  Q 121.89 179.51 122.13 179.22
  Q 122.87 178.34 122.45 177.13
  Q 128.26 166.05 132.89 159.87
  Q 140.82 149.28 149.45 139.23
  Q 152.46 135.71 155.97 132.87
  Q 157.08 132.82 158.30 130.76
  Q 168.49 120.92 179.77 113.65
  Q 191.12 106.34 204.39 100.66
  Q 207.18 99.47 217.52 95.42
  Q 221.50 93.86 232.77 91.83
  Q 264.07 86.18 293.77 91.40
  Q 304.95 93.36 318.99 98.26
  Z" />
  <path fill="#c59048" d="
  M 312.47 100.73
  Q 314.29 102.14 317.23 102.08
  Q 319.08 102.05 321.41 103.57
  Q 322.63 104.37 321.29 103.80
  L 319.52 103.04
  A 0.17 0.17 0.0 0 0 319.35 103.32
  Q 321.16 104.80 321.78 104.65
  Q 322.02 104.59 322.02 104.59
  Q 321.48 104.88 319.50 103.95
  Q 319.29 103.86 319.16 104.05
  Q 319.07 104.20 319.13 104.33
  Q 319.20 104.49 319.38 104.53
  Q 320.75 104.87 322.16 105.77
  Q 325.30 107.78 329.01 109.33
  Q 329.54 109.56 331.80 110.36
  Q 333.66 111.01 335.26 112.46
  Q 336.00 113.13 337.45 112.85
  Q 337.96 112.76 338.41 113.01
  L 349.64 119.35
  Q 350.11 119.61 350.43 120.05
  Q 351.01 120.85 352.00 121.10
  Q 352.49 121.23 352.87 121.55
  Q 354.82 123.18 356.92 124.61
  Q 359.01 126.04 360.85 127.58
  Q 363.42 129.74 366.01 131.94
  Q 368.18 133.78 370.30 135.96
  Q 372.18 137.89 374.38 140.09
  Q 375.12 140.83 376.01 141.37
  Q 376.84 141.87 377.44 142.73
  Q 380.41 147.05 381.76 148.49
  Q 383.86 150.73 385.55 153.03
  Q 387.02 155.04 389.74 155.92
  Q 390.22 156.07 390.50 156.49
  Q 392.22 158.95 395.09 159.47
  Q 395.62 159.57 395.43 160.08
  Q 395.37 160.27 395.64 160.37
  Q 396.09 160.55 396.00 160.07
  L 395.62 158.02
  Q 402.48 168.63 407.53 180.28
  C 408.01 181.41 408.67 182.37 408.58 183.81
  A 1.15 1.14 -88.4 0 1 407.45 184.88
  L 398.34 185.02
  A 1.30 1.29 75.7 0 1 397.18 184.33
  Q 394.11 178.38 390.71 172.22
  Q 390.03 170.99 389.22 170.03
  C 388.44 169.10 388.20 167.78 387.53 166.73
  Q 362.53 127.40 320.01 110.62
  Q 316.48 109.22 312.49 107.87
  Q 308.71 106.59 305.02 105.16
  Q 303.93 104.74 302.05 104.83
  Q 301.56 104.85 301.08 104.76
  L 284.22 101.59
  Q 278.69 99.86 272.91 99.57
  Q 272.85 99.56 272.84 99.62
  Q 272.82 99.69 272.89 99.66
  Q 273.04 99.61 273.22 99.61
  Q 273.52 99.61 273.56 99.32
  Q 273.63 98.86 273.16 98.87
  Q 266.75 98.91 260.22 98.86
  Q 255.56 98.82 250.81 99.31
  C 245.42 99.87 241.53 100.52 237.03 101.89
  Q 214.67 106.40 195.15 118.14
  C 186.50 123.34 177.38 128.95 169.88 135.28
  Q 145.17 156.15 131.17 184.29
  A 1.36 1.35 -76.4 0 1 129.94 185.05
  L 121.12 185.02
  A 0.94 0.93 3.3 0 1 120.19 183.98
  Q 120.57 180.54 122.45 177.13
  Q 122.87 178.34 122.13 179.22
  Q 121.89 179.51 121.86 179.89
  Q 121.85 180.04 121.82 180.20
  A 0.18 0.18 0.0 0 0 122.05 180.40
  Q 122.26 180.34 122.48 180.40
  Q 123.01 180.54 123.24 180.03
  Q 123.75 178.92 124.65 178.14
  Q 125.40 177.50 125.98 176.62
  Q 127.56 174.24 129.35 172.33
  Q 130.79 170.78 131.75 169.01
  Q 136.48 160.22 143.33 154.27
  Q 144.43 153.31 145.26 151.98
  Q 145.93 150.92 147.17 149.58
  Q 150.27 146.24 153.41 143.36
  Q 160.78 136.57 169.41 129.32
  Q 175.95 123.83 182.77 119.72
  Q 190.05 115.32 197.19 111.36
  Q 201.22 109.12 206.50 106.61
  Q 211.30 104.32 216.07 102.58
  Q 234.25 95.95 252.49 94.62
  C 260.49 94.04 268.44 94.38 276.51 94.34
  Q 279.71 94.32 282.99 95.06
  Q 286.45 95.83 289.87 96.15
  C 292.15 96.36 294.21 97.10 296.55 97.22
  Q 299.93 97.39 302.21 98.27
  Q 303.33 98.71 304.63 98.98
  Q 306.36 99.35 307.25 99.72
  Q 309.78 100.76 312.47 100.73
  Z" />
  <path fill="#e7b96f" d="
  M 318.99 98.26
  Q 330.25 102.62 335.45 105.33
  Q 338.36 106.85 347.52 112.25
  Q 354.69 116.48 359.18 119.78
  Q 380.69 135.60 395.62 158.02
  L 396.00 160.07
  Q 396.09 160.55 395.64 160.37
  Q 395.37 160.27 395.43 160.08
  Q 395.62 159.57 395.09 159.47
  Q 392.22 158.95 390.50 156.49
  Q 390.22 156.07 389.74 155.92
  Q 387.02 155.04 385.55 153.03
  Q 383.86 150.73 381.76 148.49
  Q 380.41 147.05 377.44 142.73
  Q 376.84 141.87 376.01 141.37
  Q 375.12 140.83 374.38 140.09
  Q 372.18 137.89 370.30 135.96
  Q 368.18 133.78 366.01 131.94
  Q 363.42 129.74 360.85 127.58
  Q 359.01 126.04 356.92 124.61
  Q 354.82 123.18 352.87 121.55
  Q 352.49 121.23 352.00 121.10
  Q 351.01 120.85 350.43 120.05
  Q 350.11 119.61 349.64 119.35
  L 338.41 113.01
  Q 337.96 112.76 337.45 112.85
  Q 336.00 113.13 335.26 112.46
  Q 333.66 111.01 331.80 110.36
  Q 329.54 109.56 329.01 109.33
  Q 325.30 107.78 322.16 105.77
  Q 320.75 104.87 319.38 104.53
  Q 319.20 104.49 319.13 104.33
  Q 319.07 104.20 319.16 104.05
  Q 319.29 103.86 319.50 103.95
  Q 321.48 104.88 322.02 104.59
  Q 322.02 104.59 321.78 104.65
  Q 321.16 104.80 319.35 103.32
  A 0.17 0.17 0.0 0 1 319.52 103.04
  L 321.29 103.80
  Q 322.63 104.37 321.41 103.57
  Q 319.08 102.05 317.23 102.08
  Q 314.29 102.14 312.47 100.73
  L 321.26 102.86
  Q 321.73 102.97 322.10 103.28
  Q 323.29 104.24 324.97 104.00
  Q 325.56 103.92 325.16 103.47
  L 322.47 100.47
  Q 322.14 100.11 321.67 100.00
  Q 319.93 99.59 318.99 98.26
  Z
  M 332.94 108.29
  C 331.48 107.78 330.82 106.42 328.62 106.66
  Q 328.12 106.71 327.73 106.38
  Q 327.23 105.95 326.55 105.72
  Q 325.63 105.40 326.29 106.12
  Q 327.24 107.15 328.65 107.14
  Q 329.16 107.14 329.50 107.53
  Q 329.79 107.87 330.24 107.84
  Q 330.88 107.80 331.41 108.16
  Q 333.07 109.29 335.02 109.83
  Q 335.21 109.88 335.26 109.69
  L 335.33 109.42
  A 0.40 0.40 0.0 0 0 335.04 108.93
  Q 333.98 108.66 332.94 108.29
  Z" />
  <path fill="#a36a19" d="
  M 284.22 101.59
  Q 271.79 101.55 259.66 101.11
  Q 253.47 100.88 248.33 101.16
  Q 242.68 101.48 237.03 101.89
  C 241.53 100.52 245.42 99.87 250.81 99.31
  Q 255.56 98.82 260.22 98.86
  Q 266.75 98.91 273.16 98.87
  Q 273.63 98.86 273.56 99.32
  Q 273.52 99.61 273.22 99.61
  Q 273.04 99.61 272.89 99.66
  Q 272.82 99.69 272.84 99.62
  Q 272.85 99.56 272.91 99.57
  Q 278.69 99.86 284.22 101.59
  Z" />
  <path fill="#f6c995" d="
  M 332.94 108.29
  Q 333.98 108.66 335.04 108.93
  A 0.40 0.40 0.0 0 1 335.33 109.42
  L 335.26 109.69
  Q 335.21 109.88 335.02 109.83
  Q 333.07 109.29 331.41 108.16
  Q 330.88 107.80 330.24 107.84
  Q 329.79 107.87 329.50 107.53
  Q 329.16 107.14 328.65 107.14
  Q 327.24 107.15 326.29 106.12
  Q 325.63 105.40 326.55 105.72
  Q 327.23 105.95 327.73 106.38
  Q 328.12 106.71 328.62 106.66
  C 330.82 106.42 331.48 107.78 332.94 108.29
  Z" />
  <path fill="#e7b96f" d="
  M 370.91 185.14
  Q 369.69 182.77 368.06 180.76
  Q 365.61 177.74 364.88 176.66
  Q 363.03 173.92 361.19 171.28
  Q 360.46 170.25 359.54 169.36
  Q 358.67 168.52 357.94 167.42
  Q 356.68 165.53 355.38 163.92
  Q 354.17 162.42 352.50 160.95
  Q 350.99 159.62 349.26 157.82
  Q 342.47 150.74 332.12 143.70
  Q 331.66 143.38 331.10 143.40
  Q 330.41 143.42 330.18 142.83
  Q 330.00 142.36 329.56 142.10
  L 325.91 139.90
  Q 325.89 139.89 325.85 139.88
  Q 325.73 139.88 325.60 139.88
  Q 325.14 139.91 324.77 139.61
  Q 323.67 138.71 322.27 138.48
  Q 321.91 138.42 321.84 138.07
  Q 321.76 137.73 321.46 137.63
  Q 319.49 136.96 317.43 135.72
  Q 315.82 134.76 313.95 134.16
  Q 312.12 133.57 310.33 133.10
  Q 309.69 132.57 309.46 132.20
  Q 309.14 131.67 309.69 131.96
  Q 309.81 132.03 309.95 132.05
  Q 310.90 132.24 310.22 131.55
  Q 310.01 131.35 309.71 131.30
  Q 307.82 131.03 306.78 129.76
  Q 306.44 129.35 305.90 129.27
  Q 300.20 128.41 295.64 126.76
  Q 293.85 126.11 292.26 125.80
  Q 290.50 125.45 288.81 125.05
  Q 286.10 124.41 283.54 124.40
  Q 280.32 124.39 277.74 123.64
  Q 275.51 122.98 273.04 123.08
  Q 266.97 123.33 260.00 122.61
  Q 257.10 122.31 249.47 123.23
  Q 244.62 123.81 239.21 125.19
  Q 230.49 127.42 224.07 129.62
  Q 215.38 132.59 204.08 139.09
  Q 203.49 139.43 203.09 139.99
  Q 202.81 140.38 202.40 140.60
  Q 194.48 144.89 188.92 149.42
  Q 186.83 151.13 184.79 152.65
  Q 182.61 154.27 180.92 156.11
  Q 178.26 159.00 175.52 161.34
  Q 173.66 162.93 172.47 164.77
  Q 171.11 166.90 169.48 168.64
  Q 167.95 170.27 166.76 172.16
  Q 164.62 175.58 161.97 178.82
  Q 161.65 179.20 161.55 179.69
  Q 161.09 181.85 159.45 182.13
  A 1.32 1.32 0.0 0 1 158.02 180.28
  Q 159.07 177.97 160.39 175.41
  Q 161.51 173.21 163.07 171.34
  Q 166.04 167.77 168.44 163.86
  Q 168.70 163.43 169.15 163.24
  Q 169.74 162.99 170.04 162.42
  Q 170.41 161.73 170.94 161.17
  Q 173.16 158.83 175.26 156.04
  C 176.53 154.35 178.08 153.43 179.48 151.93
  C 181.50 149.76 183.70 147.95 185.79 146.00
  Q 187.09 144.78 189.26 143.35
  Q 192.60 141.15 195.27 138.10
  Q 227.75 116.36 265.62 117.14
  Q 280.30 117.44 300.54 122.43
  C 307.28 124.10 314.08 127.41 320.51 130.49
  Q 345.35 142.37 363.38 163.93
  Q 370.62 172.58 375.10 181.46
  Q 375.82 182.88 375.84 184.20
  Q 375.86 184.85 375.21 184.89
  L 370.91 185.14
  Z" />
  <path fill="#c59048" d="
  M 310.33 133.10
  Q 306.05 130.75 303.51 130.84
  Q 301.06 130.91 299.92 130.33
  Q 298.99 129.85 298.09 129.59
  Q 295.85 128.95 293.24 128.75
  Q 290.84 128.56 288.30 128.12
  Q 284.56 127.47 280.86 127.43
  Q 280.53 127.43 280.31 127.19
  Q 279.80 126.65 278.99 126.90
  Q 278.44 127.07 278.25 126.53
  Q 266.19 125.54 255.52 126.69
  Q 254.03 126.85 252.47 127.67
  Q 252.01 127.90 251.50 127.90
  C 249.83 127.87 248.16 127.74 246.53 128.15
  Q 243.62 128.88 240.67 129.41
  C 238.36 129.83 236.62 131.57 234.29 131.92
  Q 231.65 132.33 229.41 133.38
  Q 227.78 134.14 226.02 134.64
  Q 224.26 135.14 222.50 135.64
  Q 222.13 135.74 221.85 136.24
  Q 221.60 136.66 221.13 136.80
  Q 217.88 137.75 214.99 139.51
  Q 214.48 139.83 213.37 140.20
  Q 212.14 140.61 212.07 141.52
  Q 195.88 150.35 184.88 160.63
  Q 173.72 171.05 166.05 183.81
  A 2.08 2.05 12.8 0 1 164.45 184.80
  Q 159.50 185.24 154.28 184.71
  A 1.09 1.08 -75.5 0 1 153.40 183.20
  Q 155.09 179.25 157.59 175.57
  Q 167.25 161.37 178.17 150.90
  C 181.18 148.02 184.53 145.57 187.66 142.80
  Q 189.10 141.53 195.27 138.10
  Q 192.60 141.15 189.26 143.35
  Q 187.09 144.78 185.79 146.00
  C 183.70 147.95 181.50 149.76 179.48 151.93
  C 178.08 153.43 176.53 154.35 175.26 156.04
  Q 173.16 158.83 170.94 161.17
  Q 170.41 161.73 170.04 162.42
  Q 169.74 162.99 169.15 163.24
  Q 168.70 163.43 168.44 163.86
  Q 166.04 167.77 163.07 171.34
  Q 161.51 173.21 160.39 175.41
  Q 159.07 177.97 158.02 180.28
  A 1.32 1.32 0.0 0 0 159.45 182.13
  Q 161.09 181.85 161.55 179.69
  Q 161.65 179.20 161.97 178.82
  Q 164.62 175.58 166.76 172.16
  Q 167.95 170.27 169.48 168.64
  Q 171.11 166.90 172.47 164.77
  Q 173.66 162.93 175.52 161.34
  Q 178.26 159.00 180.92 156.11
  Q 182.61 154.27 184.79 152.65
  Q 186.83 151.13 188.92 149.42
  Q 194.48 144.89 202.40 140.60
  Q 202.81 140.38 203.09 139.99
  Q 203.49 139.43 204.08 139.09
  Q 215.38 132.59 224.07 129.62
  Q 230.49 127.42 239.21 125.19
  Q 244.62 123.81 249.47 123.23
  Q 257.10 122.31 260.00 122.61
  Q 266.97 123.33 273.04 123.08
  Q 275.51 122.98 277.74 123.64
  Q 280.32 124.39 283.54 124.40
  Q 286.10 124.41 288.81 125.05
  Q 290.50 125.45 292.26 125.80
  Q 293.85 126.11 295.64 126.76
  Q 300.20 128.41 305.90 129.27
  Q 306.44 129.35 306.78 129.76
  Q 307.82 131.03 309.71 131.30
  Q 310.01 131.35 310.22 131.55
  Q 310.90 132.24 309.95 132.05
  Q 309.81 132.03 309.69 131.96
  Q 309.14 131.67 309.46 132.20
  Q 309.69 132.57 310.33 133.10
  Z" />
  <path fill="#a36a19" d="
  M 310.33 133.10
  Q 312.12 133.57 313.95 134.16
  Q 315.82 134.76 317.43 135.72
  Q 319.49 136.96 321.46 137.63
  Q 321.76 137.73 321.84 138.07
  Q 321.91 138.42 322.27 138.48
  Q 323.67 138.71 324.77 139.61
  Q 325.14 139.91 325.60 139.88
  Q 325.73 139.88 325.85 139.88
  Q 325.89 139.89 325.91 139.90
  L 329.56 142.10
  Q 330.00 142.36 330.18 142.83
  Q 330.41 143.42 331.10 143.40
  Q 331.66 143.38 332.12 143.70
  Q 342.47 150.74 349.26 157.82
  Q 350.99 159.62 352.50 160.95
  Q 354.17 162.42 355.38 163.92
  Q 356.68 165.53 357.94 167.42
  Q 358.67 168.52 359.54 169.36
  Q 360.46 170.25 361.19 171.28
  Q 363.03 173.92 364.88 176.66
  Q 365.61 177.74 368.06 180.76
  Q 369.69 182.77 370.91 185.14
  L 364.05 185.07
  Q 363.57 185.06 363.34 184.64
  Q 360.37 179.28 356.11 173.84
  C 341.13 154.74 320.19 139.13 296.65 133.81
  Q 287.07 131.64 276.92 129.89
  Q 266.40 128.08 254.06 129.42
  Q 253.90 129.44 253.81 129.58
  Q 253.58 129.90 253.19 129.94
  Q 251.01 130.18 248.73 130.38
  Q 248.46 130.40 248.30 130.61
  Q 248.09 130.90 247.72 130.91
  Q 243.37 130.98 239.42 131.91
  Q 236.73 132.54 234.08 133.31
  Q 231.49 134.07 229.02 135.39
  Q 227.15 136.39 224.86 136.79
  Q 222.84 137.14 220.79 138.02
  Q 216.55 139.82 212.07 141.52
  Q 212.14 140.61 213.37 140.20
  Q 214.48 139.83 214.99 139.51
  Q 217.88 137.75 221.13 136.80
  Q 221.60 136.66 221.85 136.24
  Q 222.13 135.74 222.50 135.64
  Q 224.26 135.14 226.02 134.64
  Q 227.78 134.14 229.41 133.38
  Q 231.65 132.33 234.29 131.92
  C 236.62 131.57 238.36 129.83 240.67 129.41
  Q 243.62 128.88 246.53 128.15
  C 248.16 127.74 249.83 127.87 251.50 127.90
  Q 252.01 127.90 252.47 127.67
  Q 254.03 126.85 255.52 126.69
  Q 266.19 125.54 278.25 126.53
  Q 278.44 127.07 278.99 126.90
  Q 279.80 126.65 280.31 127.19
  Q 280.53 127.43 280.86 127.43
  Q 284.56 127.47 288.30 128.12
  Q 290.84 128.56 293.24 128.75
  Q 295.85 128.95 298.09 129.59
  Q 298.99 129.85 299.92 130.33
  Q 301.06 130.91 303.51 130.84
  Q 306.05 130.75 310.33 133.10
  Z" />
  <path fill="#c59048" d="
  M 158.30 130.76
  Q 157.08 132.82 155.97 132.87
  Q 156.65 131.26 158.30 130.76
  Z" />
  <path fill="#e7b96f" d="
  M 338.36 180.36
  Q 338.22 180.92 338.40 181.50
  C 338.62 182.26 339.31 182.65 339.61 183.38
  Q 339.84 183.96 339.22 183.86
  Q 337.28 183.56 335.28 184.05
  C 334.07 184.35 332.72 184.13 331.85 183.16
  Q 325.63 176.24 322.28 173.74
  Q 316.84 169.69 309.41 164.92
  Q 299.29 158.42 288.05 155.39
  Q 285.41 154.68 282.86 153.91
  Q 280.26 153.12 277.57 152.87
  C 271.26 152.28 265.18 151.32 258.75 151.92
  Q 243.83 153.31 230.00 159.01
  Q 225.95 160.68 215.47 166.65
  Q 215.25 166.78 215.10 166.96
  Q 214.96 167.15 214.82 167.34
  Q 214.62 167.62 214.33 167.82
  Q 211.23 169.94 208.06 172.58
  Q 206.42 173.95 205.30 175.33
  Q 204.08 176.83 202.61 178.16
  Q 200.32 180.22 199.15 182.32
  Q 197.96 184.45 195.52 184.21
  L 192.25 183.89
  Q 189.42 183.61 191.31 181.48
  Q 193.48 179.04 194.98 176.11
  Q 208.41 161.99 226.59 154.19
  Q 234.77 150.68 241.74 148.77
  Q 263.84 142.75 285.31 147.90
  C 291.09 149.29 296.67 151.76 302.33 153.89
  Q 305.72 155.17 309.04 157.01
  Q 320.18 163.19 329.60 171.40
  Q 332.25 173.71 338.36 180.36
  Z" />
  <path fill="#a36a19" d="
  M 338.36 180.36
  Q 339.20 181.18 339.67 182.17
  Q 339.85 182.54 340.19 182.78
  Q 341.04 183.36 341.35 184.32
  Q 341.59 185.07 340.81 185.11
  Q 333.69 185.45 326.93 185.04
  A 3.94 3.92 -20.8 0 1 324.40 183.91
  C 321.46 180.98 318.64 178.30 315.09 175.86
  Q 311.07 173.08 307.10 170.23
  Q 302.27 166.74 298.80 165.07
  C 286.02 158.94 271.49 156.65 257.25 157.86
  Q 246.77 158.74 238.41 161.74
  Q 217.23 169.33 204.32 183.16
  Q 202.40 185.21 199.87 185.07
  Q 195.58 184.83 190.75 184.87
  A 1.10 1.10 0.0 0 1 189.64 183.83
  Q 189.54 182.13 190.45 180.69
  Q 192.11 178.06 194.98 176.11
  Q 193.48 179.04 191.31 181.48
  Q 189.42 183.61 192.25 183.89
  L 195.52 184.21
  Q 197.96 184.45 199.15 182.32
  Q 200.32 180.22 202.61 178.16
  Q 204.08 176.83 205.30 175.33
  Q 206.42 173.95 208.06 172.58
  Q 211.23 169.94 214.33 167.82
  Q 214.62 167.62 214.82 167.34
  Q 214.96 167.15 215.10 166.96
  Q 215.25 166.78 215.47 166.65
  Q 225.95 160.68 230.00 159.01
  Q 243.83 153.31 258.75 151.92
  C 265.18 151.32 271.26 152.28 277.57 152.87
  Q 280.26 153.12 282.86 153.91
  Q 285.41 154.68 288.05 155.39
  Q 299.29 158.42 309.41 164.92
  Q 316.84 169.69 322.28 173.74
  Q 325.63 176.24 331.85 183.16
  C 332.72 184.13 334.07 184.35 335.28 184.05
  Q 337.28 183.56 339.22 183.86
  Q 339.84 183.96 339.61 183.38
  C 339.31 182.65 338.62 182.26 338.40 181.50
  Q 338.22 180.92 338.36 180.36
  Z" />
  <path fill="#678a90" d="
  M 251.97 176.57
  C 258.40 174.30 266.16 174.88 272.91 175.44
  C 276.94 175.77 286.06 178.25 284.13 183.94
  A 1.48 1.44 -6.8 0 1 283.49 184.73
  Q 279.63 187.06 275.19 187.35
  Q 264.37 188.06 253.90 187.02
  C 250.20 186.66 243.22 183.93 247.20 179.05
  C 248.45 177.53 250.20 177.19 251.97 176.57
  Z" />
  <path fill="#fff6d3" d="
  M 102.16 270.37
  L 101.88 293.46
  Q 101.86 294.81 103.21 294.80
  L 141.39 294.59
  Q 142.18 294.59 142.19 295.38
  Q 142.33 302.41 142.04 308.73
  C 141.90 311.85 140.27 313.71 137.30 313.71
  Q 111.42 313.72 86.74 313.75
  C 82.33 313.75 79.16 311.02 79.17 306.77
  Q 79.27 259.72 79.17 215.64
  Q 79.16 211.93 81.59 209.77
  C 83.11 208.41 86.07 208.62 88.01 208.63
  Q 113.89 208.77 137.63 208.79
  Q 140.46 208.79 143.34 209.23
  Q 143.87 209.32 143.87 209.85
  L 143.83 226.22
  A 1.54 1.54 0.0 0 1 142.29 227.75
  L 102.66 227.70
  A 0.39 0.39 0.0 0 0 102.27 228.09
  L 102.23 251.48
  A 0.51 0.51 0.0 0 0 102.73 251.99
  L 127.29 252.04
  A 0.50 0.50 0.0 0 1 127.79 252.54
  L 127.76 268.06
  A 1.59 1.59 0.0 0 1 126.19 269.65
  L 102.63 269.91
  Q 102.16 269.91 102.16 270.37
  Z" />
  <path fill="#fff6d3" d="
  M 254.72 239.42
  C 253.75 239.30 252.89 239.42 252.23 240.20
  Q 238.03 257.11 223.44 273.24
  Q 223.11 273.61 222.78 273.24
  Q 208.26 257.05 194.75 241.77
  Q 194.36 241.33 193.84 241.50
  A 0.51 0.49 -10.0 0 0 193.50 241.97
  Q 193.59 275.00 193.70 307.75
  C 193.71 309.86 193.13 313.58 190.41 313.67
  Q 182.45 313.93 175.95 313.65
  Q 172.06 313.48 172.03 309.60
  Q 171.54 261.32 171.91 212.76
  Q 171.94 208.58 176.29 208.74
  Q 183.40 209.00 191.12 209.33
  C 192.60 209.39 193.93 210.21 194.94 211.25
  Q 209.13 225.77 221.94 240.94
  A 0.21 0.21 0.0 0 0 222.26 240.94
  C 227.18 235.49 232.54 230.24 237.42 224.69
  Q 244.03 217.19 251.57 209.62
  C 252.88 208.31 254.40 208.60 256.08 208.57
  Q 266.01 208.38 275.84 208.76
  Q 276.38 208.78 276.39 209.32
  Q 277.01 259.16 277.01 309.25
  C 277.01 311.81 275.30 313.39 272.78 313.53
  Q 264.80 313.99 259.86 313.33
  Q 255.38 312.73 255.36 308.45
  Q 255.20 274.55 255.24 240.01
  Q 255.24 239.49 254.72 239.42
  Z" />
  <path fill="#fff6d3" d="
  M 309.84 209.97
  Q 311.06 209.19 312.47 209.03
  Q 319.09 208.25 326.48 208.83
  Q 329.04 209.03 329.04 211.53
  Q 329.07 263.32 329.61 307.71
  C 329.66 311.59 326.53 313.63 323.01 313.84
  Q 317.81 314.15 313.62 313.69
  C 311.00 313.40 308.77 310.92 308.75 308.20
  Q 308.34 260.36 308.57 217.92
  Q 308.59 213.88 309.48 210.46
  A 0.80 0.80 0.0 0 1 309.84 209.97
  Z" />
  <path fill="#fff6d3" d="
  M 379.95 272.57
  Q 379.96 288.95 380.00 305.92
  C 380.01 311.17 376.41 313.66 371.31 313.72
  Q 366.62 313.78 362.68 313.68
  C 357.40 313.53 358.11 306.65 358.11 303.31
  Q 358.12 259.92 358.34 213.13
  C 358.34 212.13 358.65 211.03 358.76 210.03
  A 1.39 1.39 0.0 0 1 360.13 208.79
  Q 379.99 208.66 399.85 208.72
  Q 409.33 208.75 414.09 210.32
  C 431.35 216.01 442.70 233.26 436.32 251.34
  C 433.15 260.31 427.05 265.76 418.66 269.44
  Q 418.08 269.69 418.35 270.26
  Q 421.69 277.49 425.87 284.25
  Q 432.65 295.21 439.39 307.13
  C 443.94 315.17 426.01 313.90 422.95 313.26
  Q 419.91 312.63 417.61 308.72
  Q 406.59 290.04 395.19 272.29
  A 1.44 1.43 73.4 0 0 393.96 271.62
  L 380.74 271.78
  Q 379.95 271.78 379.95 272.57
  Z
  M 380.04 229.49
  L 379.96 251.53
  A 2.05 2.05 0.0 0 0 382.00 253.58
  L 402.42 253.65
  A 14.07 12.98 0.2 0 0 416.54 240.72
  L 416.54 240.54
  A 14.07 12.98 0.2 0 0 402.52 227.51
  L 382.10 227.44
  A 2.05 2.05 0.0 0 0 380.04 229.49
  Z" />
  <path fill="#011822" d="
  M 380.04 229.49
  A 2.05 2.05 0.0 0 1 382.10 227.44
  L 402.52 227.51
  A 14.07 12.98 0.2 0 1 416.54 240.54
  L 416.54 240.72
  A 14.07 12.98 0.2 0 1 402.42 253.65
  L 382.00 253.58
  A 2.05 2.05 0.0 0 1 379.96 251.53
  L 380.04 229.49
  Z" />
  <path fill="#678a90" d="
  M 218.31 393.74
  Q 216.37 393.71 215.19 394.53
  A 0.82 0.82 0.0 0 0 215.30 395.94
  Q 217.00 396.76 218.75 397.57
  C 221.64 398.90 224.75 399.64 227.78 400.75
  Q 230.39 401.71 233.30 402.52
  Q 237.50 403.68 241.74 404.65
  Q 247.96 406.06 253.41 406.55
  C 259.94 407.13 266.88 406.52 273.70 406.53
  Q 278.08 406.53 285.02 405.18
  C 287.09 404.78 288.99 405.13 290.95 404.36
  C 292.74 403.65 294.53 403.95 296.39 403.15
  C 297.42 402.70 298.54 403.02 299.69 402.60
  Q 303.38 401.23 306.52 399.75
  Q 308.78 398.68 311.03 398.17
  Q 314.88 397.30 317.65 394.75
  A 0.84 0.82 -28.0 0 0 317.90 393.95
  L 317.80 393.48
  Q 317.71 393.06 317.28 393.13
  Q 316.00 393.33 315.12 392.76
  Q 331.65 386.23 342.03 378.35
  Q 351.34 371.26 360.14 363.90
  Q 362.48 361.94 364.67 359.50
  Q 371.79 351.55 379.17 342.05
  C 381.50 339.05 386.10 337.88 389.48 339.40
  Q 393.92 341.38 391.44 345.73
  Q 388.33 351.17 382.90 357.25
  C 374.87 366.24 367.13 375.10 357.13 382.11
  Q 346.02 389.89 334.58 396.15
  Q 321.03 403.57 304.87 407.31
  Q 264.98 416.52 224.49 406.51
  Q 212.25 403.48 197.97 396.66
  Q 177.34 386.79 162.14 372.48
  Q 153.49 364.32 146.62 356.47
  C 144.14 353.62 139.33 347.87 139.57 344.30
  C 139.87 339.88 145.62 335.92 149.51 339.59
  C 154.44 344.24 158.08 350.08 162.59 355.22
  Q 185.49 381.34 218.31 393.74
  Z" />
  <path fill="#a3bcbc" d="
  M 301.13 339.34
  Q 302.55 341.40 297.61 340.93
  A 1.66 1.66 0.0 0 0 296.59 341.17
  Q 293.60 343.02 290.98 343.45
  Q 287.23 344.07 282.51 344.26
  Q 281.60 344.30 280.71 344.58
  Q 280.04 344.80 279.30 344.89
  Q 270.19 345.94 261.25 345.66
  Q 257.70 345.55 254.36 344.73
  Q 251.88 344.12 249.20 344.07
  Q 246.59 344.02 243.99 343.39
  Q 239.94 342.39 236.21 341.47
  C 234.18 340.97 232.29 341.12 230.25 341.13
  Q 229.69 341.13 229.53 340.59
  Q 229.32 339.89 229.76 338.99
  Q 234.17 337.61 239.00 338.62
  Q 246.73 340.25 254.64 340.63
  Q 271.80 341.45 291.23 338.72
  Q 296.06 338.04 301.13 339.34
  Z" />
  <path fill="#678a90" d="
  M 183.64 338.93
  Q 186.95 343.73 191.36 347.19
  Q 191.78 347.52 192.03 347.99
  Q 192.42 348.76 193.19 349.16
  Q 193.61 349.37 193.90 349.73
  Q 194.30 350.21 194.71 350.73
  Q 195.22 351.36 195.94 351.77
  Q 198.99 353.49 202.07 355.47
  Q 202.51 355.76 202.77 356.22
  Q 203.08 356.79 203.72 356.84
  A 1.49 1.46 71.0 0 1 204.68 357.32
  Q 206.13 358.95 208.11 359.75
  Q 209.97 360.51 211.21 362.07
  A 1.29 1.28 -12.7 0 0 211.93 362.52
  Q 213.54 362.88 214.95 363.68
  C 216.54 364.57 219.22 366.14 220.99 366.21
  Q 221.83 366.25 222.37 366.87
  A 2.16 2.06 78.1 0 0 223.20 367.44
  Q 228.67 369.49 234.38 371.68
  Q 237.24 372.77 240.32 372.96
  Q 243.45 373.16 246.47 374.26
  Q 248.84 375.12 251.54 375.12
  Q 255.93 375.11 260.60 375.57
  C 264.77 375.99 268.94 375.87 273.16 375.90
  C 275.64 375.92 277.92 375.29 280.37 375.14
  Q 282.96 374.98 285.71 374.21
  Q 289.12 373.26 292.89 372.65
  Q 295.97 372.15 299.01 371.16
  Q 302.02 370.18 304.98 369.19
  Q 306.63 368.63 308.13 367.71
  Q 309.62 366.78 311.18 366.34
  Q 313.53 365.68 315.83 364.52
  Q 317.77 363.53 319.87 362.51
  Q 321.58 361.68 323.63 360.14
  Q 326.10 358.28 328.67 356.55
  Q 331.27 354.80 333.57 352.82
  Q 337.77 349.20 341.47 346.58
  Q 341.75 346.38 341.85 346.05
  Q 341.99 345.56 342.39 345.24
  Q 344.23 343.74 345.78 341.88
  Q 346.41 341.12 347.33 340.72
  Q 347.82 340.51 347.90 340.00
  Q 348.05 339.16 347.44 338.70
  Q 347.02 338.38 346.38 338.37
  Q 345.35 338.36 344.21 338.46
  Q 348.94 337.51 351.54 339.77
  A 2.16 2.16 0.0 0 1 351.78 342.79
  Q 331.34 367.22 301.80 377.06
  Q 298.41 378.19 294.80 378.88
  C 291.54 379.50 288.47 380.63 285.14 381.07
  Q 264.63 383.80 248.59 381.70
  Q 234.83 379.89 223.23 374.90
  C 213.47 370.70 204.40 364.86 195.96 358.73
  C 190.02 354.41 184.21 349.04 180.49 342.62
  Q 179.79 341.42 180.89 340.56
  Q 183.12 338.83 183.64 338.93
  Z" />
  <path fill="#a3bcbc" d="
  M 344.21 338.46
  Q 345.35 338.36 346.38 338.37
  Q 347.02 338.38 347.44 338.70
  Q 348.05 339.16 347.90 340.00
  Q 347.82 340.51 347.33 340.72
  Q 346.41 341.12 345.78 341.88
  Q 344.23 343.74 342.39 345.24
  Q 341.99 345.56 341.85 346.05
  Q 341.75 346.38 341.47 346.58
  Q 337.77 349.20 333.57 352.82
  Q 331.27 354.80 328.67 356.55
  Q 326.10 358.28 323.63 360.14
  Q 321.58 361.68 319.87 362.51
  Q 317.77 363.53 315.83 364.52
  Q 313.53 365.68 311.18 366.34
  Q 309.62 366.78 308.13 367.71
  Q 306.63 368.63 304.98 369.19
  Q 302.02 370.18 299.01 371.16
  Q 295.97 372.15 292.89 372.65
  Q 289.12 373.26 285.71 374.21
  Q 282.96 374.98 280.37 375.14
  C 277.92 375.29 275.64 375.92 273.16 375.90
  C 268.94 375.87 264.77 375.99 260.60 375.57
  Q 255.93 375.11 251.54 375.12
  Q 248.84 375.12 246.47 374.26
  Q 243.45 373.16 240.32 372.96
  Q 237.24 372.77 234.38 371.68
  Q 228.67 369.49 223.20 367.44
  A 2.16 2.06 78.1 0 1 222.37 366.87
  Q 221.83 366.25 220.99 366.21
  C 219.22 366.14 216.54 364.57 214.95 363.68
  Q 213.54 362.88 211.93 362.52
  A 1.29 1.28 -12.7 0 1 211.21 362.07
  Q 209.97 360.51 208.11 359.75
  Q 206.13 358.95 204.68 357.32
  A 1.49 1.46 71.0 0 0 203.72 356.84
  Q 203.08 356.79 202.77 356.22
  Q 202.51 355.76 202.07 355.47
  Q 198.99 353.49 195.94 351.77
  Q 195.22 351.36 194.71 350.73
  Q 194.30 350.21 193.90 349.73
  Q 193.61 349.37 193.19 349.16
  Q 192.42 348.76 192.03 347.99
  Q 191.78 347.52 191.36 347.19
  Q 186.95 343.73 183.64 338.93
  Q 188.10 337.75 191.30 340.40
  C 200.28 347.83 208.46 355.68 219.57 360.74
  Q 254.67 376.74 292.09 367.80
  C 304.88 364.74 316.28 359.34 326.52 351.28
  Q 332.95 346.23 339.11 340.87
  Q 341.52 338.77 344.21 338.46
  Z" />
  <path fill="#678a90" d="
  M 229.76 338.99
  Q 229.32 339.89 229.53 340.59
  Q 229.69 341.13 230.25 341.13
  C 232.29 341.12 234.18 340.97 236.21 341.47
  Q 239.94 342.39 243.99 343.39
  Q 246.59 344.02 249.20 344.07
  Q 251.88 344.12 254.36 344.73
  Q 257.70 345.55 261.25 345.66
  Q 270.19 345.94 279.30 344.89
  Q 280.04 344.80 280.71 344.58
  Q 281.60 344.30 282.51 344.26
  Q 287.23 344.07 290.98 343.45
  Q 293.60 343.02 296.59 341.17
  A 1.66 1.66 0.0 0 1 297.61 340.93
  Q 302.55 341.40 301.13 339.34
  Q 302.33 339.84 302.37 340.58
  A 1.24 1.24 0.0 0 1 302.07 341.44
  C 300.30 343.48 298.00 345.18 295.48 346.20
  Q 284.82 350.52 275.39 351.43
  Q 265.57 352.37 258.30 351.95
  Q 251.44 351.55 243.13 348.92
  Q 235.48 346.50 230.05 343.84
  C 228.05 342.86 226.86 340.13 229.76 338.99
  Z" />
  <path fill="#a3bcbc" d="
  M 315.12 392.76
  Q 316.00 393.33 317.28 393.13
  Q 317.71 393.06 317.80 393.48
  L 317.90 393.95
  A 0.84 0.82 -28.0 0 1 317.65 394.75
  Q 314.88 397.30 311.03 398.17
  Q 308.78 398.68 306.52 399.75
  Q 303.38 401.23 299.69 402.60
  C 298.54 403.02 297.42 402.70 296.39 403.15
  C 294.53 403.95 292.74 403.65 290.95 404.36
  C 288.99 405.13 287.09 404.78 285.02 405.18
  Q 278.08 406.53 273.70 406.53
  C 266.88 406.52 259.94 407.13 253.41 406.55
  Q 247.96 406.06 241.74 404.65
  Q 237.50 403.68 233.30 402.52
  Q 230.39 401.71 227.78 400.75
  C 224.75 399.64 221.64 398.90 218.75 397.57
  Q 217.00 396.76 215.30 395.94
  A 0.82 0.82 0.0 0 1 215.19 394.53
  Q 216.37 393.71 218.31 393.74
  Q 247.73 403.79 278.57 401.31
  C 289.08 400.47 299.54 398.00 309.73 394.89
  Q 312.59 394.01 315.12 392.76
  Z" />
  <path fill="#ffffff" d="
  M 500.00 394.36
  L 500.00 412.04
  L 500.00 394.36
  Z" />
  <path fill="#ffffff" d="
  M 500.00 417.35
  L 500.00 423.52
  L 500.00 417.35
  Z" />
  <path fill="#ffffff" d="
  M 500.00 425.35
  L 500.00 432.01
  L 500.00 425.35
  Z" />
  <path fill="#ffffff" d="
  M 500.00 432.32
  L 500.00 439.54
  L 500.00 432.32
  Z" />
  <path fill="#ffffff" d="
  M 0.00 498.99
  L 500.00 498.99
  L 500.00 500.00
  L 0.00 500.00
  L 0.00 498.99
  Z" />
</svg>